<svg version="1.1" xmlns="http://www.w3.org/2000/svg" xmlns:xlink="http://www.w3.org/1999/xlink" width="48" height="48"><defs><linearGradient x1="11.08449" y1="13.66759" x2="46.26305" y2="43.67995" gradientUnits="userSpaceOnUse" id="color-1"><stop offset="0.19" stop-color="#000000" stop-opacity="0.39"></stop><stop offset="1" stop-color="#000000" stop-opacity="0"></stop></linearGradient><filter id="dropshadow-base"><feColorMatrix type="matrix" values="0 0 0 0 0  0 0 0 0 0  0 0 0 0 0  0 0 0 .8 0"></feColorMatrix> <feOffset dx="0" dy="1"></feOffset> <feGaussianBlur stdDeviation="1"></feGaussianBlur> <feComposite in="SourceGraphic"></feComposite></filter><filter id="dropshadow-banner" x="-10%" y="-10%" width="120%" height="130%"><feColorMatrix type="matrix" values="0 0 0 0 0  0 0 0 0 0  0 0 0 0 0  0 0 0 .4 0"></feColorMatrix> <feOffset dx="0" dy="1"></feOffset> <feGaussianBlur stdDeviation="0.5"></feGaussianBlur> <feComposite in="SourceGraphic"></feComposite></filter></defs><g fill="none" fill-rule="nonzero" stroke="none" stroke-width="none" stroke-linecap="butt" stroke-linejoin="miter" stroke-miterlimit="10" stroke-dasharray="" stroke-dashoffset="0" font-family="none" font-weight="none" font-size="none" text-anchor="none" style="mix-blend-mode: normal"><path d="M2,24c0,-12.15026 9.84974,-22 22,-22c12.15026,0 22,9.84974 22,22c0,12.15026 -9.84974,22 -22,22c-12.15026,0 -22,-9.84974 -22,-22z" id="base 1 5" fill="#512da8" stroke-width="1"></path><path d="M23.01513,23.01513c-1.42071,0 -2.5831,1.1624 -2.5831,2.5831v8.72995l13.90038,-0.00869c1.42071,0 2.5831,-1.14948 2.5831,-2.57019l-8.73418,-8.73418zM36.91551,23.01513h-1.63065l1.63065,1.63065zM23.01513,43.67995c-0.71358,0 -1.362,-0.28999 -1.83069,-0.75868l-9.34754,-9.34754c-0.46445,-0.46445 -0.75241,-1.10438 -0.75241,-1.81151v-15.51153c0,-1.42071 1.1624,-2.5831 2.5831,-2.5831h15.49861l16.0764,16.0764c-1.64514,6.09896 -5.84685,11.14883 -11.38474,13.92918z" fill="url(#color-1)" stroke-width="1"></path><path d="M36.91551,21.4169l-7.74931,-7.74931h-15.49861c-1.42071,0 -2.5831,1.1624 -2.5831,2.5831v15.51153c0,1.42071 1.1624,2.57019 2.5831,2.57019l20.66482,-0.01292c1.42071,0 2.5831,-1.14948 2.5831,-2.57019zM27.87465,15.60492l7.10353,7.10353h-7.10353z" fill="none" stroke-width="0"></path><path d="M36.91551,31.74931c0,1.42071 -1.1624,2.57019 -2.5831,2.57019l-20.66482,0.01292c-1.42071,0 -2.5831,-1.14948 -2.5831,-2.57019v-15.51153c0,-1.42071 1.1624,-2.5831 2.5831,-2.5831h15.49861l7.74931,7.74931zM27.87465,22.70845h7.10353l-7.10353,-7.10353z" fill="#ffffff" stroke-width="0"></path><path d="M2,24c0,-12.15026 9.84974,-22 22,-22c12.15026,0 22,9.84974 22,22c0,12.15026 -9.84974,22 -22,22c-12.15026,0 -22,-9.84974 -22,-22z" id="base 1 1 1" fill="none" stroke-width="1"></path><g fill="#000000" stroke-width="1" font-family="Roboto, sans-serif" font-weight="400" font-size="14" text-anchor="start"></g><path d="M16,36v-12h30v12z" id="banner 1" fill="#444494" stroke-width="1" filter="url(#dropshadow-banner)"></path><text x="31" y="33" fill="#ffffff" stroke-width="1" font-family="sans-serif" font-weight="bold" font-size="8" text-anchor="middle">DEV</text><rect x="2" y="2" width="44" height="22" fill="none" stroke-width="1"></rect><path d="M2,24v-22h44v22z" fill="none" stroke-width="1"></path><path d="M2,24v-22h44v22z" fill="none" stroke-width="1"></path><path d="M2,24v-22h44v22z" fill="none" stroke-width="1"></path><path d="M2,24v-22h44v22z" fill="none" stroke-width="1"></path></g></svg>